<svg width="245" height="122" viewBox="0 0 245 122" fill="none" xmlns="http://www.w3.org/2000/svg">
<path d="M9.4 97V27H42.2C50.6 27 57 28.6667 61.4 32C65.8 35.2667 68 39.6667 68 45.2C68 48.9333 67.1333 52.1333 65.4 54.8C63.6667 57.4 61.3333 59.4333 58.4 60.9C55.5333 62.3 52.4 63 49 63L50.8 59.4C54.7333 59.4 58.2667 60.1333 61.4 61.6C64.5333 63 67 65.0667 68.8 67.8C70.6667 70.5333 71.6 73.9333 71.6 78C71.6 84 69.3 88.6667 64.7 92C60.1 95.3333 53.2667 97 44.2 97H9.4ZM22.4 86.8H43.4C48.2667 86.8 52 86 54.6 84.4C57.2 82.8 58.5 80.2333 58.5 76.7C58.5 73.2333 57.2 70.7 54.6 69.1C52 67.4333 48.2667 66.6 43.4 66.6H21.4V56.5H40.8C45.3333 56.5 48.8 55.7 51.2 54.1C53.6667 52.5 54.9 50.1 54.9 46.9C54.9 43.6333 53.6667 41.2 51.2 39.6C48.8 38 45.3333 37.2 40.8 37.2H22.4V86.8ZM97.4742 56.1H132.274V66.8H97.4742V56.1ZM98.4742 86.1H137.974V97H85.4742V27H136.574V37.9H98.4742V86.1ZM152.466 97V27H163.166L207.066 80.9H201.766V27H214.666V97H203.966L160.066 43.1H165.366V97H152.466Z" fill="#2B2424"/>
<rect x="225" y="77" width="20" height="20" rx="10" fill="#2B2424"/>
<rect x="230" y="82" width="10" height="10" rx="5" fill="white"/>
</svg>
